<svg width="24" height="26" viewBox="0 0 24 26" fill="none" xmlns="http://www.w3.org/2000/svg">
<path d="M12 16.1895C13.6569 16.1895 15 14.7321 15 12.9343C15 11.1366 13.6569 9.6792 12 9.6792C10.3431 9.6792 9 11.1366 9 12.9343C9 14.7321 10.3431 16.1895 12 16.1895Z" stroke="#ffffff" stroke-width="1.8" stroke-linecap="round" stroke-linejoin="round"/>
<path d="M19.4 16.1891C19.2669 16.5164 19.2272 16.8794 19.286 17.2313C19.3448 17.5833 19.4995 17.908 19.73 18.1637L19.79 18.2288C19.976 18.4303 20.1235 18.6697 20.2241 18.9331C20.3248 19.1965 20.3766 19.4789 20.3766 19.764C20.3766 20.0492 20.3248 20.3315 20.2241 20.5949C20.1235 20.8584 19.976 21.0977 19.79 21.2992C19.6043 21.501 19.3837 21.661 19.1409 21.7702C18.8981 21.8794 18.6378 21.9356 18.375 21.9356C18.1122 21.9356 17.8519 21.8794 17.6091 21.7702C17.3663 21.661 17.1457 21.501 16.96 21.2992L16.9 21.2341C16.6643 20.984 16.365 20.8162 16.0406 20.7524C15.7162 20.6886 15.3816 20.7317 15.08 20.8761C14.7842 21.0136 14.532 21.242 14.3543 21.533C14.1766 21.8241 14.0813 22.1652 14.08 22.5143V22.6988C14.08 23.2743 13.8693 23.8262 13.4942 24.2331C13.1191 24.64 12.6104 24.8687 12.08 24.8687C11.5496 24.8687 11.0409 24.64 10.6658 24.2331C10.2907 23.8262 10.08 23.2743 10.08 22.6988V22.6011C10.0723 22.242 9.96512 21.8937 9.77251 21.6016C9.5799 21.3094 9.31074 21.0869 9 20.9629C8.69838 20.8185 8.36381 20.7754 8.03941 20.8392C7.71502 20.903 7.41568 21.0708 7.18 21.3209L7.12 21.386C6.93425 21.5877 6.71368 21.7478 6.47088 21.857C6.22808 21.9662 5.96783 22.0224 5.705 22.0224C5.44217 22.0224 5.18192 21.9662 4.93912 21.857C4.69632 21.7478 4.47575 21.5877 4.29 21.386C4.10405 21.1845 3.95653 20.9452 3.85588 20.6817C3.75523 20.4183 3.70343 20.136 3.70343 19.8508C3.70343 19.5657 3.75523 19.2833 3.85588 19.0199C3.95653 18.7565 4.10405 18.5171 4.29 18.3156L4.35 18.2505C4.58054 17.9948 4.73519 17.6701 4.794 17.3181C4.85282 16.9662 4.81312 16.6032 4.68 16.2759C4.55324 15.955 4.34276 15.6814 4.07447 15.4886C3.80618 15.2958 3.49179 15.1924 3.17 15.191H3C2.46957 15.191 1.96086 14.9624 1.58579 14.5555C1.21071 14.1485 1 13.5966 1 13.0211C1 12.4456 1.21071 11.8937 1.58579 11.4868C1.96086 11.0799 2.46957 10.8512 3 10.8512H3.09C3.42099 10.8428 3.742 10.7266 4.0113 10.5176C4.28059 10.3087 4.48572 10.0166 4.6 9.67951C4.73312 9.35228 4.77282 8.98928 4.714 8.63733C4.65519 8.28538 4.50054 7.96062 4.27 7.70492L4.21 7.63983C4.02405 7.4383 3.87653 7.19899 3.77588 6.93557C3.67523 6.67215 3.62343 6.38979 3.62343 6.10464C3.62343 5.81948 3.67523 5.53712 3.77588 5.2737C3.87653 5.01028 4.02405 4.77097 4.21 4.56945C4.39575 4.3677 4.61632 4.20765 4.85912 4.09846C5.10192 3.98926 5.36217 3.93305 5.625 3.93305C5.88783 3.93305 6.14808 3.98926 6.39088 4.09846C6.63368 4.20765 6.85425 4.3677 7.04 4.56945L7.1 4.63454C7.33568 4.88466 7.63502 5.05245 7.95941 5.11626C8.28381 5.18008 8.61838 5.137 8.92 4.99257H9C9.29577 4.85504 9.54802 4.62668 9.72569 4.33561C9.90337 4.04453 9.99872 3.70344 10 3.35432V3.16988C10 2.59439 10.2107 2.04247 10.5858 1.63554C10.9609 1.22861 11.4696 1 12 1C12.5304 1 13.0391 1.22861 13.4142 1.63554C13.7893 2.04247 14 2.59439 14 3.16988V3.26752C14.0013 3.61664 14.0966 3.95773 14.2743 4.24881C14.452 4.53989 14.7042 4.76825 15 4.90578C15.3016 5.0502 15.6362 5.09328 15.9606 5.02947C16.285 4.96565 16.5843 4.79787 16.82 4.54775L16.88 4.48265C17.0657 4.28091 17.2863 4.12086 17.5291 4.01166C17.7719 3.90246 18.0322 3.84626 18.295 3.84626C18.5578 3.84626 18.8181 3.90246 19.0609 4.01166C19.3037 4.12086 19.5243 4.28091 19.71 4.48265C19.896 4.68418 20.0435 4.92349 20.1441 5.18691C20.2448 5.45033 20.2966 5.73269 20.2966 6.01784C20.2966 6.303 20.2448 6.58536 20.1441 6.84878C20.0435 7.11219 19.896 7.35151 19.71 7.55303L19.65 7.61813C19.4195 7.87382 19.2648 8.19859 19.206 8.55053C19.1472 8.90248 19.1869 9.26548 19.32 9.59272V9.67951C19.4468 10.0004 19.6572 10.2741 19.9255 10.4668C20.1938 10.6596 20.5082 10.7631 20.83 10.7644H21C21.5304 10.7644 22.0391 10.9931 22.4142 11.4C22.7893 11.8069 23 12.3588 23 12.9343C23 13.5098 22.7893 14.0617 22.4142 14.4687C22.0391 14.8756 21.5304 15.1042 21 15.1042H20.91C20.5882 15.1056 20.2738 15.209 20.0055 15.4018C19.7372 15.5946 19.5268 15.8683 19.4 16.1891V16.1891Z" stroke="#ffffff" stroke-width="1.8" stroke-linecap="round" stroke-linejoin="round"/>
</svg>
