<svg width="32" height="32" viewBox="0 0 32 32" fill="none" xmlns="http://www.w3.org/2000/svg">
<path d="M7.6 21.8H6.4C5.76348 21.8 5.15303 21.5471 4.70294 21.0971C4.25286 20.647 4 20.0365 4 19.4V7.4C4 6.76348 4.25286 6.15303 4.70294 5.70294C5.15303 5.25286 5.76348 5 6.4 5H25.6C26.2365 5 26.847 5.25286 27.2971 5.70294C27.7471 6.15303 28 6.76348 28 7.4V19.4C28 20.0365 27.7471 20.647 27.2971 21.0971C26.847 21.5471 26.2365 21.8 25.6 21.8H24.4" stroke="#3C50E0" stroke-width="2" stroke-linecap="round" stroke-linejoin="round"/>
<path d="M16 19.3995L22 26.5995H10L16 19.3995Z" stroke="#3C50E0" stroke-width="2" stroke-linecap="round" stroke-linejoin="round"/>
</svg>