<svg width="32" height="32" viewBox="0 0 32 32" fill="none" xmlns="http://www.w3.org/2000/svg">
<path d="M20.3721 17.0906V25.8179" stroke="#FF5670" stroke-width="2" stroke-linecap="round" stroke-linejoin="round"/>
<path d="M11.6455 17.0906V25.8179" stroke="#FF5670" stroke-width="2" stroke-linecap="round" stroke-linejoin="round"/>
<path d="M16.0078 19.2726V27.9999" stroke="#FF5670" stroke-width="2" stroke-linecap="round" stroke-linejoin="round"/>
<path d="M24.7339 20.9962C25.8807 20.4939 26.8198 19.6124 27.3936 18.4997C27.9674 17.3869 28.141 16.1106 27.8851 14.8851C27.6292 13.6595 26.9596 12.5593 25.9885 11.769C25.0174 10.9788 23.804 10.5467 22.552 10.5452H21.1775C20.8317 9.20612 20.1726 7.96839 19.2545 6.93404C18.3365 5.89969 17.1857 5.09833 15.8972 4.59601C14.6086 4.09369 13.2191 3.9048 11.8432 4.0449C10.4673 4.185 9.14445 4.65009 7.98359 5.40183C6.82272 6.15356 5.85713 7.17042 5.16641 8.3686C4.47568 9.56677 4.0796 10.9119 4.0108 12.2932C3.94201 13.6745 4.20248 15.0524 4.77073 16.3133C5.33899 17.5741 6.19876 18.6819 7.27919 19.5453" stroke="#FF5670" stroke-width="2" stroke-linecap="round" stroke-linejoin="round"/>
</svg>
