<svg width="32" height="32" viewBox="0 0 32 32" fill="none" xmlns="http://www.w3.org/2000/svg">
<path d="M4 5H11.2C12.473 5 13.6939 5.50571 14.5941 6.40588C15.4943 7.30605 16 8.52694 16 9.79997V26.5999C16 25.6451 15.6207 24.7294 14.9456 24.0543C14.2705 23.3792 13.3548 22.9999 12.4 22.9999H4V5Z" stroke="#3C50E0" stroke-width="2" stroke-linecap="round" stroke-linejoin="round"/>
<path d="M28 5H20.8C19.527 5 18.3061 5.50571 17.4059 6.40588C16.5057 7.30605 16 8.52694 16 9.79997V26.5999C16 25.6451 16.3793 24.7294 17.0544 24.0543C17.7295 23.3792 18.6452 22.9999 19.6 22.9999H28V5Z" stroke="#3C50E0" stroke-width="2" stroke-linecap="round" stroke-linejoin="round"/>
</svg>
