<svg width="32" height="32" viewBox="0 0 32 32" fill="none" xmlns="http://www.w3.org/2000/svg">
<path d="M9.99996 27.9998H6.39998C5.76347 27.9998 5.15302 27.747 4.70294 27.2969C4.25285 26.8468 4 26.2364 4 25.5999V17.1999C4 16.5634 4.25285 15.953 4.70294 15.5029C5.15302 15.0528 5.76347 14.7999 6.39998 14.7999H9.99996M18.3999 12.3999V7.59998C18.3999 6.6452 18.0206 5.72954 17.3455 5.05441C16.6704 4.37928 15.7547 4 14.7999 4L9.99996 14.7999V27.9998H23.5359C24.1147 28.0064 24.6763 27.8035 25.1173 27.4287C25.5584 27.0538 25.8491 26.5321 25.9359 25.9599L27.5918 15.1599C27.6441 14.816 27.6209 14.4648 27.5239 14.1306C27.4268 13.7965 27.2584 13.4875 27.0301 13.225C26.8018 12.9624 26.5191 12.7527 26.2017 12.6102C25.8843 12.4678 25.5397 12.396 25.1919 12.3999H18.3999Z" stroke="#FF5670" stroke-width="2" stroke-linecap="round" stroke-linejoin="round"/>
</svg>
