<svg width="32" height="32" viewBox="0 0 32 32" fill="none" xmlns="http://www.w3.org/2000/svg">
<path d="M20.3636 25.6365V23.4546C20.3636 22.2972 19.9039 21.1873 19.0856 20.3689C18.2672 19.5506 17.1573 19.0908 16 19.0908H8.36364C7.20633 19.0908 6.09642 19.5506 5.27808 20.3689C4.45974 21.1873 4 22.2972 4 23.4546V25.6365" stroke="#FDB400" stroke-width="2" stroke-linecap="round" stroke-linejoin="round"/>
<path d="M12.182 14.7273C14.592 14.7273 16.5457 12.7736 16.5457 10.3636C16.5457 7.95367 14.592 6 12.182 6C9.77203 6 7.81836 7.95367 7.81836 10.3636C7.81836 12.7736 9.77203 14.7273 12.182 14.7273Z" stroke="#FDB400" stroke-width="2" stroke-linecap="round" stroke-linejoin="round"/>
<path d="M21.4541 14.7273L23.6359 16.9092L27.9996 12.5454" stroke="#FDB400" stroke-width="2" stroke-linecap="round" stroke-linejoin="round"/>
</svg>
