<svg width="32" height="32" viewBox="0 0 32 32" fill="none" xmlns="http://www.w3.org/2000/svg">
<path d="M21.4545 25.6365V23.4546C21.4545 22.2972 20.9948 21.1873 20.1765 20.3689C19.3581 19.5506 18.2482 19.0908 17.0909 19.0908H8.36363C7.20632 19.0908 6.09642 19.5506 5.27808 20.3689C4.45974 21.1873 4 22.2972 4 23.4546V25.6365" stroke="#FDB400" stroke-width="2" stroke-linecap="round" stroke-linejoin="round"/>
<path d="M12.7269 14.7273C15.1369 14.7273 17.0905 12.7736 17.0905 10.3636C17.0905 7.95367 15.1369 6 12.7269 6C10.3169 6 8.36328 7.95367 8.36328 10.3636C8.36328 12.7736 10.3169 14.7273 12.7269 14.7273Z" stroke="#FDB400" stroke-width="2" stroke-linecap="round" stroke-linejoin="round"/>
<path d="M28.0002 25.6372V23.4554C27.9995 22.4886 27.6777 21.5494 27.0854 20.7852C26.493 20.0211 25.6637 19.4754 24.7275 19.2336" stroke="#FDB400" stroke-width="2" stroke-linecap="round" stroke-linejoin="round"/>
<path d="M20.3633 6.14282C21.3019 6.38315 22.1338 6.92905 22.728 7.69444C23.3221 8.45984 23.6445 9.4012 23.6445 10.3701C23.6445 11.339 23.3221 12.2804 22.728 13.0458C22.1338 13.8112 21.3019 14.3571 20.3633 14.5974" stroke="#FDB400" stroke-width="2" stroke-linecap="round" stroke-linejoin="round"/>
</svg>
